<svg xmlns="http://www.w3.org/2000/svg" xmlns:xlink="http://www.w3.org/1999/xlink" version="1.1" width="256" height="256" viewBox="0 0 256 256" xml:space="preserve">

<defs>
</defs>
<g style="stroke: none; stroke-width: 0; stroke-dasharray: none; stroke-linecap: butt; stroke-linejoin: miter; stroke-miterlimit: 10; fill: none; fill-rule: nonzero; opacity: 1;" transform="translate(1.4065934065934016 1.4065934065934016) scale(2.81 2.81)" >
	<path d="M 45 90 c -12.811 0 -25.78 -4.03 -25.78 -11.732 S 32.189 66.537 45 66.537 c 12.811 0 25.781 4.03 25.781 11.732 S 57.812 90 45 90 z M 45 71.77 c -13.294 0 -20.547 4.292 -20.547 6.498 c 0 2.206 7.252 6.498 20.547 6.498 c 13.295 0 20.547 -4.292 20.547 -6.498 C 65.547 76.063 58.295 71.77 45 71.77 z" style="stroke: none; stroke-width: 1; stroke-dasharray: none; stroke-linecap: butt; stroke-linejoin: miter; stroke-miterlimit: 10; fill: rgb(255,188,39); fill-rule: nonzero; opacity: 1;" transform=" matrix(1 0 0 1 0 0) " stroke-linecap="round" />
	<path d="M 45 0 C 30.604 0 18.934 11.67 18.934 26.066 c 0 14.396 13.032 36.644 26.066 52.587 C 58.033 62.71 71.066 40.462 71.066 26.066 C 71.066 11.67 59.396 0 45 0 z M 45 37.469 c -6.516 0 -11.798 -5.282 -11.798 -11.798 c 0 -6.516 5.282 -11.798 11.798 -11.798 s 11.798 5.282 11.798 11.798 C 56.798 32.187 51.516 37.469 45 37.469 z" style="stroke: none; stroke-width: 1; stroke-dasharray: none; stroke-linecap: butt; stroke-linejoin: miter; stroke-miterlimit: 10; fill: rgb(255,41,128); fill-rule: nonzero; opacity: 1;" transform=" matrix(1 0 0 1 0 0) " stroke-linecap="round" />
</g>
</svg>